<svg xmlns="http://www.w3.org/2000/svg" xmlns:xlink="http://www.w3.org/1999/xlink" width="500" zoomAndPan="magnify" viewBox="0 0 375 60" height="80" preserveAspectRatio="xMidYMid meet" version="1.0"><defs><g/><clipPath id="24e0103a8e"><path d="M 215.28125 9.308594 L 237.78125 9.308594 L 237.78125 41.558594 L 215.28125 41.558594 Z M 215.28125 9.308594 " clip-rule="nonzero"/></clipPath></defs><rect x="-37.5" width="450" fill="#ffffff" y="-6" height="72" fill-opacity="1"/><rect x="-37.5" width="450" fill="#ffffff" y="-6" height="72" fill-opacity="1"/><g fill="#000000" fill-opacity="0.4"><g transform="translate(146.491943, 38.625)"><g><path d="M 7.1875 -16.234375 L 7.1875 -8.515625 C 7.1875 -6.910156 7.425781 -5.769531 7.90625 -5.09375 C 8.394531 -4.414062 9.21875 -4.078125 10.375 -4.078125 C 11.539062 -4.078125 12.363281 -4.414062 12.84375 -5.09375 C 13.332031 -5.769531 13.578125 -6.910156 13.578125 -8.515625 L 13.578125 -16.234375 L 19.171875 -16.234375 L 19.171875 -7.15625 C 19.171875 -4.445312 18.46875 -2.5 17.0625 -1.3125 C 15.664062 -0.125 13.4375 0.46875 10.375 0.46875 C 7.320312 0.46875 5.09375 -0.125 3.6875 -1.3125 C 2.28125 -2.5 1.578125 -4.445312 1.578125 -7.15625 L 1.578125 -16.234375 Z M 7.1875 -16.234375 "/></g></g></g><g fill="#000000" fill-opacity="0.4"><g transform="translate(165.855597, 38.625)"><g><path d="M 8.953125 -16.703125 C 9.878906 -16.703125 10.796875 -16.597656 11.703125 -16.390625 C 12.609375 -16.179688 13.285156 -15.96875 13.734375 -15.75 L 14.390625 -15.4375 L 12.5625 -11.765625 C 11.289062 -12.441406 10.085938 -12.78125 8.953125 -12.78125 C 8.316406 -12.78125 7.867188 -12.710938 7.609375 -12.578125 C 7.347656 -12.441406 7.21875 -12.179688 7.21875 -11.796875 C 7.21875 -11.710938 7.226562 -11.628906 7.25 -11.546875 C 7.269531 -11.460938 7.3125 -11.382812 7.375 -11.3125 C 7.4375 -11.238281 7.492188 -11.175781 7.546875 -11.125 C 7.597656 -11.070312 7.6875 -11.015625 7.8125 -10.953125 C 7.9375 -10.890625 8.035156 -10.835938 8.109375 -10.796875 C 8.179688 -10.765625 8.300781 -10.71875 8.46875 -10.65625 C 8.644531 -10.59375 8.773438 -10.546875 8.859375 -10.515625 C 8.941406 -10.484375 9.082031 -10.4375 9.28125 -10.375 C 9.488281 -10.3125 9.644531 -10.269531 9.75 -10.25 C 10.394531 -10.0625 10.960938 -9.847656 11.453125 -9.609375 C 11.941406 -9.378906 12.453125 -9.0625 12.984375 -8.65625 C 13.523438 -8.257812 13.941406 -7.753906 14.234375 -7.140625 C 14.535156 -6.535156 14.6875 -5.84375 14.6875 -5.0625 C 14.6875 -1.375 12.125 0.46875 7 0.46875 C 5.832031 0.46875 4.726562 0.289062 3.6875 -0.0625 C 2.644531 -0.414062 1.890625 -0.773438 1.421875 -1.140625 L 0.734375 -1.703125 L 3 -5.53125 C 3.175781 -5.382812 3.398438 -5.210938 3.671875 -5.015625 C 3.941406 -4.816406 4.4375 -4.539062 5.15625 -4.1875 C 5.875 -3.84375 6.5 -3.671875 7.03125 -3.671875 C 8.1875 -3.671875 8.765625 -4.0625 8.765625 -4.84375 C 8.765625 -5.195312 8.613281 -5.472656 8.3125 -5.671875 C 8.019531 -5.878906 7.519531 -6.109375 6.8125 -6.359375 C 6.113281 -6.609375 5.5625 -6.84375 5.15625 -7.0625 C 4.144531 -7.582031 3.34375 -8.175781 2.75 -8.84375 C 2.15625 -9.507812 1.859375 -10.390625 1.859375 -11.484375 C 1.859375 -13.128906 2.492188 -14.410156 3.765625 -15.328125 C 5.046875 -16.242188 6.773438 -16.703125 8.953125 -16.703125 Z M 8.953125 -16.703125 "/></g></g></g><g fill="#000000" fill-opacity="0.4"><g transform="translate(180.030192, 38.625)"><g><path d="M 3.4375 -1.921875 C 1.632812 -3.523438 0.734375 -5.582031 0.734375 -8.09375 C 0.734375 -10.601562 1.671875 -12.664062 3.546875 -14.28125 C 5.421875 -15.894531 7.738281 -16.703125 10.5 -16.703125 C 13.226562 -16.703125 15.523438 -15.890625 17.390625 -14.265625 C 19.253906 -12.640625 20.1875 -10.582031 20.1875 -8.09375 C 20.1875 -5.601562 19.273438 -3.550781 17.453125 -1.9375 C 15.628906 -0.332031 13.3125 0.46875 10.5 0.46875 C 7.59375 0.46875 5.238281 -0.328125 3.4375 -1.921875 Z M 7.765625 -10.84375 C 7.035156 -10.132812 6.671875 -9.21875 6.671875 -8.09375 C 6.671875 -6.976562 7.019531 -6.066406 7.71875 -5.359375 C 8.414062 -4.648438 9.332031 -4.296875 10.46875 -4.296875 C 11.570312 -4.296875 12.472656 -4.65625 13.171875 -5.375 C 13.878906 -6.09375 14.234375 -7 14.234375 -8.09375 C 14.234375 -9.21875 13.867188 -10.132812 13.140625 -10.84375 C 12.421875 -11.5625 11.53125 -11.921875 10.46875 -11.921875 C 9.394531 -11.921875 8.492188 -11.5625 7.765625 -10.84375 Z M 7.765625 -10.84375 "/></g></g></g><g fill="#000000" fill-opacity="0.4"><g transform="translate(199.552049, 38.625)"><g><path d="M 1.890625 0 L 1.890625 -16.234375 L 7.5 -16.234375 L 7.5 -13.890625 L 7.5625 -13.890625 C 7.601562 -13.972656 7.671875 -14.078125 7.765625 -14.203125 C 7.859375 -14.328125 8.0625 -14.546875 8.375 -14.859375 C 8.695312 -15.179688 9.035156 -15.46875 9.390625 -15.71875 C 9.753906 -15.976562 10.21875 -16.207031 10.78125 -16.40625 C 11.351562 -16.601562 11.9375 -16.703125 12.53125 -16.703125 C 13.144531 -16.703125 13.742188 -16.617188 14.328125 -16.453125 C 14.921875 -16.285156 15.351562 -16.117188 15.625 -15.953125 L 16.078125 -15.6875 L 13.734375 -10.953125 C 13.035156 -11.535156 12.066406 -11.828125 10.828125 -11.828125 C 10.148438 -11.828125 9.566406 -11.679688 9.078125 -11.390625 C 8.597656 -11.097656 8.253906 -10.738281 8.046875 -10.3125 C 7.847656 -9.894531 7.707031 -9.535156 7.625 -9.234375 C 7.539062 -8.941406 7.5 -8.710938 7.5 -8.546875 L 7.5 0 Z M 1.890625 0 "/></g></g></g><g fill="#ffffff" fill-opacity="1"><g transform="translate(146.491943, 38.625)"><g><path d="M 7.1875 -16.234375 L 7.1875 -8.515625 C 7.1875 -6.910156 7.425781 -5.769531 7.90625 -5.09375 C 8.394531 -4.414062 9.21875 -4.078125 10.375 -4.078125 C 11.539062 -4.078125 12.363281 -4.414062 12.84375 -5.09375 C 13.332031 -5.769531 13.578125 -6.910156 13.578125 -8.515625 L 13.578125 -16.234375 L 19.171875 -16.234375 L 19.171875 -7.15625 C 19.171875 -4.445312 18.46875 -2.5 17.0625 -1.3125 C 15.664062 -0.125 13.4375 0.46875 10.375 0.46875 C 7.320312 0.46875 5.09375 -0.125 3.6875 -1.3125 C 2.28125 -2.5 1.578125 -4.445312 1.578125 -7.15625 L 1.578125 -16.234375 Z M 7.1875 -16.234375 "/></g></g></g><g fill="#ffffff" fill-opacity="1"><g transform="translate(165.855597, 38.625)"><g><path d="M 8.953125 -16.703125 C 9.878906 -16.703125 10.796875 -16.597656 11.703125 -16.390625 C 12.609375 -16.179688 13.285156 -15.96875 13.734375 -15.75 L 14.390625 -15.4375 L 12.5625 -11.765625 C 11.289062 -12.441406 10.085938 -12.78125 8.953125 -12.78125 C 8.316406 -12.78125 7.867188 -12.710938 7.609375 -12.578125 C 7.347656 -12.441406 7.21875 -12.179688 7.21875 -11.796875 C 7.21875 -11.710938 7.226562 -11.628906 7.25 -11.546875 C 7.269531 -11.460938 7.3125 -11.382812 7.375 -11.3125 C 7.4375 -11.238281 7.492188 -11.175781 7.546875 -11.125 C 7.597656 -11.070312 7.6875 -11.015625 7.8125 -10.953125 C 7.9375 -10.890625 8.035156 -10.835938 8.109375 -10.796875 C 8.179688 -10.765625 8.300781 -10.71875 8.46875 -10.65625 C 8.644531 -10.59375 8.773438 -10.546875 8.859375 -10.515625 C 8.941406 -10.484375 9.082031 -10.4375 9.28125 -10.375 C 9.488281 -10.3125 9.644531 -10.269531 9.75 -10.25 C 10.394531 -10.0625 10.960938 -9.847656 11.453125 -9.609375 C 11.941406 -9.378906 12.453125 -9.0625 12.984375 -8.65625 C 13.523438 -8.257812 13.941406 -7.753906 14.234375 -7.140625 C 14.535156 -6.535156 14.6875 -5.84375 14.6875 -5.0625 C 14.6875 -1.375 12.125 0.46875 7 0.46875 C 5.832031 0.46875 4.726562 0.289062 3.6875 -0.0625 C 2.644531 -0.414062 1.890625 -0.773438 1.421875 -1.140625 L 0.734375 -1.703125 L 3 -5.53125 C 3.175781 -5.382812 3.398438 -5.210938 3.671875 -5.015625 C 3.941406 -4.816406 4.4375 -4.539062 5.15625 -4.1875 C 5.875 -3.84375 6.5 -3.671875 7.03125 -3.671875 C 8.1875 -3.671875 8.765625 -4.0625 8.765625 -4.84375 C 8.765625 -5.195312 8.613281 -5.472656 8.3125 -5.671875 C 8.019531 -5.878906 7.519531 -6.109375 6.8125 -6.359375 C 6.113281 -6.609375 5.5625 -6.84375 5.15625 -7.0625 C 4.144531 -7.582031 3.34375 -8.175781 2.75 -8.84375 C 2.15625 -9.507812 1.859375 -10.390625 1.859375 -11.484375 C 1.859375 -13.128906 2.492188 -14.410156 3.765625 -15.328125 C 5.046875 -16.242188 6.773438 -16.703125 8.953125 -16.703125 Z M 8.953125 -16.703125 "/></g></g></g><g fill="#ffffff" fill-opacity="1"><g transform="translate(180.030192, 38.625)"><g><path d="M 3.4375 -1.921875 C 1.632812 -3.523438 0.734375 -5.582031 0.734375 -8.09375 C 0.734375 -10.601562 1.671875 -12.664062 3.546875 -14.28125 C 5.421875 -15.894531 7.738281 -16.703125 10.5 -16.703125 C 13.226562 -16.703125 15.523438 -15.890625 17.390625 -14.265625 C 19.253906 -12.640625 20.1875 -10.582031 20.1875 -8.09375 C 20.1875 -5.601562 19.273438 -3.550781 17.453125 -1.9375 C 15.628906 -0.332031 13.3125 0.46875 10.5 0.46875 C 7.59375 0.46875 5.238281 -0.328125 3.4375 -1.921875 Z M 7.765625 -10.84375 C 7.035156 -10.132812 6.671875 -9.21875 6.671875 -8.09375 C 6.671875 -6.976562 7.019531 -6.066406 7.71875 -5.359375 C 8.414062 -4.648438 9.332031 -4.296875 10.46875 -4.296875 C 11.570312 -4.296875 12.472656 -4.65625 13.171875 -5.375 C 13.878906 -6.09375 14.234375 -7 14.234375 -8.09375 C 14.234375 -9.21875 13.867188 -10.132812 13.140625 -10.84375 C 12.421875 -11.5625 11.53125 -11.921875 10.46875 -11.921875 C 9.394531 -11.921875 8.492188 -11.5625 7.765625 -10.84375 Z M 7.765625 -10.84375 "/></g></g></g><g fill="#ffffff" fill-opacity="1"><g transform="translate(199.552049, 38.625)"><g><path d="M 1.890625 0 L 1.890625 -16.234375 L 7.5 -16.234375 L 7.5 -13.890625 L 7.5625 -13.890625 C 7.601562 -13.972656 7.671875 -14.078125 7.765625 -14.203125 C 7.859375 -14.328125 8.0625 -14.546875 8.375 -14.859375 C 8.695312 -15.179688 9.035156 -15.46875 9.390625 -15.71875 C 9.753906 -15.976562 10.21875 -16.207031 10.78125 -16.40625 C 11.351562 -16.601562 11.9375 -16.703125 12.53125 -16.703125 C 13.144531 -16.703125 13.742188 -16.617188 14.328125 -16.453125 C 14.921875 -16.285156 15.351562 -16.117188 15.625 -15.953125 L 16.078125 -15.6875 L 13.734375 -10.953125 C 13.035156 -11.535156 12.066406 -11.828125 10.828125 -11.828125 C 10.148438 -11.828125 9.566406 -11.679688 9.078125 -11.390625 C 8.597656 -11.097656 8.253906 -10.738281 8.046875 -10.3125 C 7.847656 -9.894531 7.707031 -9.535156 7.625 -9.234375 C 7.539062 -8.941406 7.5 -8.710938 7.5 -8.546875 L 7.5 0 Z M 1.890625 0 "/></g></g></g><g clip-path="url(#24e0103a8e)"><path fill="#feb9bd" d="M 223.128906 38.9375 C 223.382812 40.550781 224.785156 41.785156 226.472656 41.785156 C 228.164062 41.785156 229.566406 40.550781 229.820312 38.9375 C 229.839844 38.796875 229.804688 38.667969 229.714844 38.558594 C 229.628906 38.445312 229.503906 38.390625 229.363281 38.390625 L 223.589844 38.390625 C 223.453125 38.390625 223.328125 38.445312 223.238281 38.558594 C 223.140625 38.667969 223.105469 38.792969 223.128906 38.9375 Z M 230.160156 33.1875 C 231.226562 33.1875 232.097656 34.058594 232.097656 35.128906 C 232.097656 36.195312 231.226562 37.066406 230.160156 37.066406 L 222.789062 37.066406 C 221.71875 37.066406 220.851562 36.195312 220.851562 35.128906 C 220.851562 34.484375 221.167969 33.914062 221.652344 33.5625 L 229.289062 27.613281 C 229.863281 27.164062 230.476562 26.667969 231.070312 26.226562 C 231.898438 25.558594 232.582031 24.707031 233.054688 23.75 C 233.527344 22.789062 233.792969 21.695312 233.792969 20.527344 C 233.792969 18.507812 232.972656 16.675781 231.648438 15.351562 C 230.324219 14.027344 228.496094 13.207031 226.472656 13.207031 C 224.453125 13.207031 222.625 14.027344 221.300781 15.351562 C 219.972656 16.675781 219.152344 18.507812 219.152344 20.527344 C 219.152344 21.929688 219.539062 23.230469 220.207031 24.328125 C 220.90625 25.476562 221.914062 26.421875 223.113281 27.035156 C 224.058594 27.523438 224.429688 28.691406 223.949219 29.636719 C 223.457031 30.582031 222.292969 30.953125 221.347656 30.46875 C 219.519531 29.523438 217.980469 28.089844 216.910156 26.335938 C 215.882812 24.640625 215.28125 22.652344 215.28125 20.527344 C 215.28125 17.4375 216.539062 14.640625 218.558594 12.613281 C 220.589844 10.59375 223.382812 9.335938 226.472656 9.335938 C 229.566406 9.335938 232.359375 10.59375 234.386719 12.613281 C 236.410156 14.636719 237.664062 17.4375 237.664062 20.527344 C 237.664062 22.28125 237.25 23.949219 236.519531 25.445312 C 235.789062 26.929688 234.746094 28.226562 233.476562 29.257812 C 232.847656 29.78125 232.0625 30.367188 231.414062 30.871094 L 228.433594 33.1875 Z M 230.160156 33.1875 " fill-opacity="1" fill-rule="evenodd"/></g></svg>